<svg width="143" height="34" viewBox="0 0 143 34" fill="none" xmlns="http://www.w3.org/2000/svg"><path d="M15.6543 22.7429L16.9121 17.0672L17.402 14.7943L17.8787 17.0672L19.1366 22.7429H21.3875L24.6844 11.2571H22.2746L20.8181 17L20.2753 19.2998L19.8119 17L18.5672 11.2571H16.2501L15.0055 17L14.542 19.2998L13.9992 17L12.5427 11.2571H10.0534L13.3504 22.7429H15.641H15.6543ZM49.6168 20.6179H43.579V17.8473H48.862V15.7223H43.579V13.3956H49.4579V11.2706H41.2354V22.7563H49.6168V20.6313V20.6179ZM30.3118 17.8204H34.7209V22.7429H37.0645V11.2571H34.7209V15.6954H30.3118V11.2571H27.9681V22.7429H30.3118V17.8204ZM55.7207 17.7128C55.7207 16.9193 55.7207 16.0989 55.7075 15.2919C56.1047 15.9644 56.5019 16.6503 56.9124 17.3228L60.1961 22.7429H62.5V11.2571H60.1564V16.2872C60.1564 17.0941 60.1696 17.9146 60.1829 18.7215C59.8121 18.076 59.4414 17.4438 59.0442 16.7983L55.681 11.2437H53.3771V22.7294H55.7207V17.6994V17.7128ZM136.843 0H6.15694C2.75407 0 0 2.79747 0 6.25396V27.746C0 31.2025 2.75407 34 6.15694 34H136.843C140.246 34 143 31.2025 143 27.746V6.25396C143 2.79747 140.246 0 136.843 0ZM73.5 31.2967H6.15694C4.2238 31.2967 2.64815 29.6962 2.64815 27.7326V6.25396C2.64815 4.29035 4.2238 2.68987 6.15694 2.68987H73.5V31.2967ZM93.8764 13.3821H90.5V22.7429H88.1564V13.3821H84.7535V11.2571H93.8896V13.3821H93.8764ZM106.204 22.7429H103.86V17.8204H99.4507V22.7429H97.1071V11.2571H99.4507V15.6954H103.86V11.2571H106.204V22.7429ZM118.743 22.7429H110.361V11.2571H118.584V13.3821H112.705V15.7089H117.988V17.8339H112.705V20.6044H118.743V22.7294V22.7429ZM131.626 22.7429H129.322L126.038 17.3228C125.628 16.6503 125.23 15.9644 124.833 15.2919C124.846 16.0989 124.846 16.9193 124.846 17.7128V22.7429H122.503V11.2571H124.807L128.17 16.8117C128.567 17.4573 128.951 18.0894 129.309 18.735C129.295 17.928 129.282 17.1076 129.282 16.3006V11.2706H131.626V22.7563V22.7429Z" fill="#6f7378"></path></svg>