<svg xmlns="http://www.w3.org/2000/svg" xmlns:xlink="http://www.w3.org/1999/xlink" viewBox="0 0 43.86 16.47"><defs><style>.cls-1{fill:#fff;}.cls-1,.cls-3{fill-rule:evenodd;}.cls-2{mask:url(#mask);}.cls-3,.cls-6,.cls-7{fill:#6f7378;}.cls-4{mask:url(#mask-2-2);}.cls-5,.cls-6,.cls-7{isolation:isolate;}.cls-6{font-size:6.53px;font-family:LucidaGrande, Lucida Grande;}.cls-7{font-size:4.47px;font-family:Avenir-BookOblique, Avenir;font-style:oblique;}</style><mask id="mask" x="1.77" y="9.73" width="7.49" height="6.74" maskUnits="userSpaceOnUse"><g id="mask-2"><polygon id="path-1" class="cls-1" points="1.77 9.73 9.26 9.73 9.26 16.47 1.77 16.47 1.77 9.73"/></g></mask><mask id="mask-2-2" x="0" y="1.82" width="10.92" height="14.08" maskUnits="userSpaceOnUse"><g id="mask-4"><polygon id="path-3" class="cls-1" points="0 1.82 10.92 1.82 10.92 15.9 0 15.9 0 1.82"/></g></mask></defs><g id="Layer_2" data-name="Layer 2"><g id="Layer_1-2" data-name="Layer 1"><g id="backpack-icon"><g id="Group-3"><g class="cls-2"><path id="Fill-1" class="cls-3" d="M7.83,14.38c-.3,0-.55-.18-.55-.4a2.47,2.47,0,0,1,.39-1.12H8A2.57,2.57,0,0,1,8.37,14c0,.22-.24.4-.54.4M2.68,12.32V12.2A.22.22,0,0,1,2.9,12H8.13a.23.23,0,0,1,.23.23v.12a.23.23,0,0,1-.23.22H2.9a.22.22,0,0,1-.22-.22M7.76,9.73H3.27a1.5,1.5,0,0,0-1.5,1.5v4.68a.56.56,0,0,0,.56.56H8.61a.65.65,0,0,0,.65-.65V11.23a1.5,1.5,0,0,0-1.5-1.5"/></g></g><g id="Group-6"><g class="cls-4"><path id="Fill-4" class="cls-3" d="M10.14,5.79h0v1.3a.24.24,0,0,1-.24.24H9.82a.23.23,0,0,1-.23-.24V4.52a1.3,1.3,0,0,0-1.3-1.3H2.63a1.3,1.3,0,0,0-1.3,1.3V7.09a.23.23,0,0,1-.24.24H1a.24.24,0,0,1-.24-.24V4.59a1.91,1.91,0,0,1,1.9-1.91H8.24a1.91,1.91,0,0,1,1.9,1.91Zm-2.81,1a.61.61,0,0,1-.61.61H4.2a.61.61,0,0,1-.61-.61V6.16a.61.61,0,0,1,.61-.61H6.72a.61.61,0,0,1,.61.61ZM1.05,9.08c-.3,0-.54-.18-.54-.4A2.57,2.57,0,0,1,.89,7.56h.32a2.57,2.57,0,0,1,.38,1.12c0,.22-.24.4-.54.4ZM8.3,1.82H2.62A2.63,2.63,0,0,0,0,4.45v9.17A2.63,2.63,0,0,0,1.32,15.9V11.13A1.84,1.84,0,0,1,3.14,9.3H7.78A1.84,1.84,0,0,1,9.6,11.13V15.9a2.63,2.63,0,0,0,1.32-2.28V4.45A2.63,2.63,0,0,0,8.3,1.82Z"/></g></g><path id="Fill-7" class="cls-3" d="M.88,8.46a.2.2,0,0,0,0,.29.21.21,0,0,0,.29,0,.21.21,0,0,0,0-.29.2.2,0,0,0-.29,0"/><path id="Fill-9" class="cls-3" d="M7.88,13.65a.2.2,0,1,0-.22.34.2.2,0,0,0,.22-.34"/><path id="Fill-11" class="cls-3" d="M5.5.44c.48,0,.87.46,1,1.07h.68A1.6,1.6,0,0,0,5.5,0,1.6,1.6,0,0,0,3.85,1.51h.68C4.63.9,5,.44,5.5.44"/></g><g id="Group-2"><g id="backpack" class="cls-5"><text class="cls-6" transform="translate(14.09 9.28)">backpack</text></g><g id="and-Go_" data-name="and-Go!" class="cls-5"><text class="cls-7" transform="translate(14.09 15.13)">and Go!</text></g></g></g></g></svg>